<?xml version="1.0" encoding="UTF-8" standalone="no"?>
<!-- Generator: Adobe Illustrator 15.1.0, SVG Export Plug-In . SVG Version: 6.00 Build 0)  -->

<svg
   version="1.1"
   x="0px"
   y="0px"
   width="384.44229mm"
   height="63.782001mm"
   viewBox="0 0 1453.0103 241.06583"
   enable-background="new 0 0 1463.528 243.979"
   xml:space="preserve"
   id="svg83"
   sodipodi:docname="plybox_blacked_v3.svg"
   inkscape:version="1.2 (dc2aedaf03, 2022-05-15)"
   xmlns:inkscape="http://www.inkscape.org/namespaces/inkscape"
   xmlns:sodipodi="http://sodipodi.sourceforge.net/DTD/sodipodi-0.dtd"
   xmlns="http://www.w3.org/2000/svg"
   xmlns:svg="http://www.w3.org/2000/svg"><defs
   id="defs87">
	

		
		
		
		
		
		
	
	
</defs><sodipodi:namedview
   id="namedview85"
   pagecolor="#505050"
   bordercolor="#eeeeee"
   borderopacity="1"
   inkscape:pageshadow="0"
   inkscape:pageopacity="0"
   inkscape:pagecheckerboard="0"
   showgrid="false"
   inkscape:zoom="1"
   inkscape:cx="657.5"
   inkscape:cy="141"
   inkscape:window-width="2550"
   inkscape:window-height="1367"
   inkscape:window-x="1085"
   inkscape:window-y="245"
   inkscape:window-maximized="1"
   inkscape:current-layer="layer1"
   showguides="true"
   inkscape:guide-bbox="true"
   inkscape:showpageshadow="0"
   inkscape:deskcolor="#505050"
   inkscape:document-units="mm" />
<path
   id="rect65"
   d="m 565.607,0 v 241.06583 h 887.4032 L 1453.0099,0 Z m 652.0219,31.784017 86.9603,70.545083 86.8463,-70.545083 h 45.6875 l -109.8614,88.841393 109.8614,88.65469 h -45.6875 l -86.7064,-70.43359 -87.1002,70.43359 h -44.6953 L 1282.182,120.53117 1172.9336,31.784017 Z m -636.1349,0.0018 225.45522,-0.0018 45.6875,24.066406 v 47.634767 l -33.76953,14.53906 33.76953,15.54492 v 51.64453 l -45.6875,24.06641 -225.45522,-1e-4 z m 345.131,-0.0018 h 177.2852 l 47.6718,24.066406 V 185.21369 l -47.6718,24.06641 H 926.625 L 878.95117,185.21369 V 55.850415 Z M 632.14648,55.850415 V 106.49299 H 801.98242 V 55.850415 Z m 297.45899,0 V 185.21369 H 1100.9316 V 55.850415 Z M 632.14648,130.56135 v 54.65234 h 169.83594 v -54.65234 z"
   sodipodi:nodetypes="cccccccccccccccccccccccccccccccccccccccccccccccccccc" />

<g
   inkscape:groupmode="layer"
   id="layer1"
   inkscape:label="ply"
   transform="translate(0,-3.9269291)"><g
     id="g416"
     transform="matrix(1,0,0,1.1342796,0,-60.098207)"><path
       d="M 328.237,105.68431 H 375.91 V 166.077 h 126.136 v -60.39269 h 47.673 V 221.732 l -35.755,18.553 H 380.876 L 336.182,217.722 H 502.046 V 188.64 H 366.971 l -38.734,-18.553 z"
       id="path72"
       sodipodi:nodetypes="ccccccccccccccc" /><path
       d="m 0,105.68431 h 186.721 l 34.762,18.552 V 194.657 l -37.741,18.552 H 47.673 v 27.076 H 0 Z M 47.673,190.645 H 173.809 V 128.24631 H 47.673 Z"
       id="path68"
       sodipodi:nodetypes="cccccccccccccc" /><path
       d="m 251.02587,84.466963 47.673,21.217347 v 134.61668 h -47.673 z"
       id="path70"
       sodipodi:nodetypes="ccccc" /></g></g></svg>
